<svg width="57" height="56" viewBox="0 0 57 56" fill="none" xmlns="http://www.w3.org/2000/svg">
<rect width="57" height="56" rx="28" fill="white"/>
<path d="M47.7812 26.8438C47.875 27.2812 47.7656 27.5312 47.4531 27.5938C47.1406 27.6562 46.7656 27.6875 46.3281 27.6875C45.9219 27.6562 45.5312 27.6562 45.1562 27.6875C44.7812 27.6875 44.5781 27.8594 44.5469 28.2031C44.3594 28.2031 44.1875 28.25 44.0312 28.3438C43.875 28.4062 43.7344 28.4844 43.6094 28.5781C43.4844 28.6719 43.3438 28.7656 43.1875 28.8594C43.0625 28.9219 42.9375 28.9375 42.8125 28.9062C42.75 29.0625 42.6562 29.1875 42.5312 29.2812C42.4062 29.3438 42.2656 29.4375 42.1094 29.5625C41.9844 29.6562 41.8594 29.7812 41.7344 29.9375C41.6406 30.0938 41.6094 30.2969 41.6406 30.5469C41.7656 30.7031 41.8906 30.75 42.0156 30.6875C42.1406 30.625 42.2656 30.5469 42.3906 30.4531C42.5156 30.3594 42.6562 30.2969 42.8125 30.2656C42.9688 30.2031 43.125 30.2344 43.2812 30.3594C43.0312 30.7656 42.7969 31.0469 42.5781 31.2031C42.3906 31.3594 42.1875 31.4531 41.9688 31.4844C41.8125 31.6719 41.7188 31.9688 41.6875 32.375C41.6875 32.7812 41.7656 33.0781 41.9219 33.2656C41.7031 33.8906 41.6406 34.5312 41.7344 35.1875C41.8594 35.8438 41.9062 36.5312 41.875 37.25C41.9375 37.3438 42 37.4219 42.0625 37.4844C42.125 37.5156 42.1719 37.5938 42.2031 37.7188C42.1406 37.875 42.0625 38.0312 41.9688 38.1875C41.875 38.3125 41.8281 38.5 41.8281 38.75C41.8281 39.5625 41.8438 40.2656 41.875 40.8594C41.9062 41.4531 41.9375 42.125 41.9688 42.875C41.9375 43.5625 41.9062 44.1094 41.875 44.5156C41.8438 44.9219 41.8594 45.3438 41.9219 45.7812C41.5156 45.9062 41.2969 45.9219 41.2656 45.8281C41.2344 45.7344 41.1875 45.6562 41.125 45.5938C41.0938 45.1562 41.0312 44.7656 40.9375 44.4219C40.875 44.0469 40.8438 43.6875 40.8438 43.3438C40.7812 43.125 40.6406 42.9531 40.4219 42.8281C40.2344 42.7031 40.0156 42.5625 39.7656 42.4062C39.6406 42.3438 39.5312 42.2656 39.4375 42.1719C39.3438 42.0469 39.2344 41.9531 39.1094 41.8906C38.6094 41.7656 38.3125 41.6719 38.2188 41.6094C38.1562 41.5469 38 41.5 37.75 41.4688C37.5938 41.4688 37.4375 41.4531 37.2812 41.4219C37.1562 41.3906 37.0156 41.375 36.8594 41.375C36.5781 41.4062 36.2812 41.5 35.9688 41.6562C35.6562 41.7812 35.3438 41.875 35.0312 41.9375C34.6875 42.2812 34.3438 42.625 34 42.9688C33.6875 43.2812 33.3906 43.625 33.1094 44C32.7969 44.1875 32.5469 44.3594 32.3594 44.5156C32.1719 44.6719 31.9844 44.7656 31.7969 44.7969C31.7656 44.9844 31.6562 45.1406 31.4688 45.2656C31.2812 45.3906 31.0625 45.4688 30.8125 45.5C30.5625 45.5625 30.2969 45.6094 30.0156 45.6406C29.7344 45.6719 29.5 45.6875 29.3125 45.6875C28.9375 45.8438 28.6719 45.9375 28.5156 45.9688C28.3594 46.0312 28.1719 46.125 27.9531 46.25C27.6094 46.1875 27.2344 46.1562 26.8281 46.1562C26.4219 46.1562 26.0156 46.0781 25.6094 45.9219C25.4844 45.8594 25.3438 45.7656 25.1875 45.6406C25.0625 45.5469 24.875 45.5 24.625 45.5C24.375 45.5 24.1406 45.5312 23.9219 45.5938C23.7031 45.6562 23.4688 45.6719 23.2188 45.6406C23.0625 45.6406 22.9062 45.6406 22.75 45.6406C22.625 45.6406 22.4844 45.625 22.3281 45.5938C22.1719 45.5625 22.0469 45.5156 21.9531 45.4531C21.8906 45.3594 21.7969 45.2812 21.6719 45.2188C21.5156 45.1562 21.3281 45.125 21.1094 45.125C20.9219 45.0938 20.75 45.0469 20.5938 44.9844C20.4688 44.9219 20.3906 44.8438 20.3594 44.75C20.3281 44.6562 20.2344 44.6094 20.0781 44.6094C19.6094 44.1406 19.0938 43.7969 18.5312 43.5781C17.9688 43.3281 17.5 43.0156 17.125 42.6406C16.9688 42.6719 16.8281 42.6875 16.7031 42.6875C16.5781 42.6562 16.4375 42.625 16.2812 42.5938C16.4062 42.0938 16.3125 41.7031 16 41.4219C15.7188 41.1094 15.4531 40.9062 15.2031 40.8125C15.1094 40.5625 14.9844 40.3438 14.8281 40.1562C14.6719 39.9688 14.5 39.7812 14.3125 39.5938C14.1562 39.4062 14.0156 39.2188 13.8906 39.0312C13.7656 38.8438 13.7031 38.6094 13.7031 38.3281C13.6406 38.2031 13.5625 38.1094 13.4688 38.0469C13.375 37.9531 13.2812 37.875 13.1875 37.8125C13.1875 37.4688 13.0938 37.1562 12.9062 36.875C12.7188 36.5938 12.5781 36.2969 12.4844 35.9844C12.4531 35.8906 12.4375 35.7969 12.4375 35.7031C12.4688 35.5781 12.4688 35.4688 12.4375 35.375C12.375 35.1562 12.2812 34.9531 12.1562 34.7656C12.0312 34.5469 12.0469 34.2812 12.2031 33.9688C12.1406 33.875 12.0469 33.8125 11.9219 33.7812C11.7969 33.75 11.6875 33.7031 11.5938 33.6406C11.625 33.2344 11.6406 32.9844 11.6406 32.8906C11.6719 32.7969 11.7344 32.6875 11.8281 32.5625C11.8594 32.3125 11.7969 32.1719 11.6406 32.1406C11.4844 32.0781 11.3906 31.9531 11.3594 31.7656C11.2969 31.6094 11.3125 31.4688 11.4062 31.3438C11.5312 31.1875 11.6094 31.0156 11.6406 30.8281C11.6719 30.7031 11.6562 30.5469 11.5938 30.3594C11.5625 30.1406 11.5312 29.9531 11.5 29.7969C11.4688 29.4844 11.4844 29.1875 11.5469 28.9062C11.6094 28.625 11.6094 28.3906 11.5469 28.2031C11.4844 28.0156 11.3438 27.8906 11.125 27.8281C10.9375 27.7344 10.875 27.5625 10.9375 27.3125C11.1562 27.25 11.3125 27.1406 11.4062 26.9844C11.5312 26.7969 11.6094 26.6094 11.6406 26.4219C11.7031 26.2031 11.75 25.9844 11.7812 25.7656C11.8438 25.5156 11.9062 25.2969 11.9688 25.1094C11.7812 24.9219 11.6719 24.6562 11.6406 24.3125C11.7969 24.2188 11.875 24.1406 11.875 24.0781C11.9062 24.0156 11.9062 23.9219 11.875 23.7969C12.0938 23.6094 12.2812 23.4062 12.4375 23.1875C12.625 22.9375 12.75 22.6719 12.8125 22.3906C12.75 22.3281 12.6719 22.2812 12.5781 22.25C12.4844 22.1875 12.4375 22.0938 12.4375 21.9688C12.4375 21.875 12.4688 21.8125 12.5312 21.7812C12.625 21.75 12.7188 21.6875 12.8125 21.5938C12.9688 21.4375 13.0938 21.2656 13.1875 21.0781C13.2812 20.8906 13.4062 20.6719 13.5625 20.4219C13.9375 20.0469 14.1562 19.75 14.2188 19.5312C14.3125 19.3125 14.4062 19.125 14.5 18.9688C14.8438 18.3125 15.1875 17.7188 15.5312 17.1875C16.4375 16.5 17.1719 15.7344 17.7344 14.8906C18.2031 14.5781 18.5156 14.2812 18.6719 14C18.8594 13.6875 19.0781 13.4063 19.3281 13.1562C19.9531 13.0937 20.4062 12.9375 20.6875 12.6875C20.9688 12.4375 21.25 12.1875 21.5312 11.9375C21.8125 11.6562 22.1094 11.4062 22.4219 11.1875C22.7344 10.9375 23.1094 10.7656 23.5469 10.6719C23.7969 10.6094 24.0156 10.4844 24.2031 10.2969C24.4219 10.0781 24.6562 9.9375 24.9062 9.875C25.0625 9.8125 25.2188 9.79688 25.375 9.82812C25.5625 9.82812 25.7188 9.75 25.8438 9.59375C26 9.65625 26.125 9.65625 26.2188 9.59375C26.3125 9.5 26.4219 9.4375 26.5469 9.40625C27.0781 9.25 27.5625 9.23438 28 9.35938C28.4688 9.45312 28.9531 9.51563 29.4531 9.54688C29.8281 9.57812 30.1719 9.65625 30.4844 9.78125C30.8281 9.875 31.1875 9.95312 31.5625 10.0156C31.6875 10.0469 31.8281 10.1562 31.9844 10.3438C32.1406 10.5 32.3281 10.6094 32.5469 10.6719C32.9531 10.7656 33.2031 10.875 33.2969 11C33.4219 11.0938 33.5625 11.125 33.7188 11.0938C33.9375 11.2812 34.0625 11.3906 34.0938 11.4219C34.1562 11.4531 34.25 11.4531 34.375 11.4219C34.8125 11.8594 35.2188 12.3125 35.5938 12.7812C35.9688 13.25 36.375 13.7031 36.8125 14.1406C36.875 14.5781 37.0469 14.9062 37.3281 15.125C37.6094 15.3125 37.8281 15.5625 37.9844 15.875C38.2344 15.9062 38.375 15.8438 38.4062 15.6875C38.4375 15.5312 38.4844 15.375 38.5469 15.2188C39.0156 14.7812 39.375 14.2812 39.625 13.7188C39.875 13.125 40.1719 12.5625 40.5156 12.0312C40.5156 11.6875 40.5312 11.5 40.5625 11.4688C40.625 11.4062 40.6719 11.3438 40.7031 11.2812C40.6719 11.0312 40.6406 10.7969 40.6094 10.5781C40.5781 10.3594 40.6562 10.1875 40.8438 10.0625C40.9062 10.0313 40.9844 10.0469 41.0781 10.1094C41.2031 10.1406 41.3125 10.1562 41.4062 10.1562C41.5312 10.4375 41.5781 10.7344 41.5469 11.0469C41.5156 11.3281 41.6094 11.5469 41.8281 11.7031C41.7031 12.3281 41.6406 12.9531 41.6406 13.5781C41.6406 14.2031 41.6094 14.8281 41.5469 15.4531C41.5469 15.7969 41.5312 16.1406 41.5 16.4844C41.5 16.7969 41.4688 17.1719 41.4062 17.6094C41.2812 17.9531 41.2344 18.1875 41.2656 18.3125C41.3281 18.4062 41.3594 18.5312 41.3594 18.6875C41.3594 18.8438 41.3438 18.9844 41.3125 19.1094C41.2812 19.2031 41.25 19.3125 41.2188 19.4375C41.1875 19.625 41.2031 19.8438 41.2656 20.0938C41.3594 20.3125 41.3125 20.5 41.125 20.6562C41.1875 21.125 41.2344 21.5312 41.2656 21.875C41.2969 22.1875 41.3125 22.5 41.3125 22.8125C41.3125 23.0938 41.2656 23.375 41.1719 23.6562C41.1094 23.9062 40.9688 24.125 40.75 24.3125C40.625 24.25 40.5156 24.1719 40.4219 24.0781C40.3594 23.9531 40.2812 23.8438 40.1875 23.75C40.0938 23.0625 39.9844 22.4062 39.8594 21.7812C39.7656 21.125 39.5 20.6406 39.0625 20.3281C39 19.7969 38.8594 19.3125 38.6406 18.875C38.4531 18.4375 38.25 18.0156 38.0312 17.6094C37.9062 17.5469 37.7812 17.5312 37.6562 17.5625C37.5625 17.5938 37.4688 17.5781 37.375 17.5156C37.4062 17.3281 37.4062 17.1719 37.375 17.0469C37.375 16.9219 37.4219 16.8125 37.5156 16.7188C37.2031 16.1875 36.875 15.6875 36.5312 15.2188C36.1875 14.7188 35.8438 14.2187 35.5 13.7188C35.1875 13.4687 34.9219 13.2031 34.7031 12.9219C34.4844 12.6094 34.1875 12.3125 33.8125 12.0312C33.7188 11.9687 33.6094 11.9375 33.4844 11.9375C33.3594 11.9063 33.2344 11.8594 33.1094 11.7969C32.2344 11.3906 31.375 11 30.5312 10.625C29.6875 10.2188 28.6406 10.0313 27.3906 10.0625C27.0781 10.0625 26.7969 10.125 26.5469 10.25C26.2969 10.375 26.0312 10.4687 25.75 10.5312C25.625 10.7813 25.4531 10.9688 25.2344 11.0938C25.0156 11.1875 24.75 11.2656 24.4375 11.3281C24.375 11.4844 24.2812 11.5781 24.1562 11.6094C24.0312 11.6094 23.9219 11.6562 23.8281 11.75C23.6406 12.0625 23.5156 12.2188 23.4531 12.2188C23.3906 12.2188 23.3594 12.2344 23.3594 12.2656C23.2656 12.6094 23.1875 12.8125 23.125 12.875C23.0625 12.9062 23 12.9531 22.9375 13.0156C22.8438 13.1719 22.75 13.3281 22.6562 13.4844C22.5938 13.6094 22.4844 13.7031 22.3281 13.7656C22.2969 13.9844 22.2656 14.1406 22.2344 14.2344C22.2031 14.2969 22.1562 14.375 22.0938 14.4688C22.0625 14.5625 22.0156 14.6562 21.9531 14.75C21.8906 14.8438 21.7812 14.9062 21.625 14.9375C21.8125 15.0312 21.8438 15.1406 21.7188 15.2656C21.625 15.3906 21.6406 15.5312 21.7656 15.6875C21.5156 15.9375 21.2812 16.25 21.0625 16.625C20.8438 16.9688 20.7812 17.3438 20.875 17.75C20.8125 18.0312 20.7031 18.2969 20.5469 18.5469C20.3906 18.7656 20.2812 19 20.2188 19.25C20.1875 19.5 20.2344 19.7031 20.3594 19.8594C20.5156 19.9844 20.625 20.1875 20.6875 20.4688C20.625 20.625 20.5312 20.7344 20.4062 20.7969C20.3125 20.8594 20.25 20.9688 20.2188 21.125C20.3125 21.25 20.4531 21.4062 20.6406 21.5938C20.6406 21.9062 20.5469 22.1406 20.3594 22.2969C20.2031 22.4219 20.0625 22.5938 19.9375 22.8125C19.9688 23 19.9688 23.1719 19.9375 23.3281C19.9062 23.4844 19.8594 23.6406 19.7969 23.7969C19.7656 23.9219 19.7344 24.0625 19.7031 24.2188C19.7031 24.375 19.7344 24.5469 19.7969 24.7344C19.6406 24.8281 19.5938 24.9844 19.6562 25.2031C19.7188 25.4219 19.7188 25.6094 19.6562 25.7656C19.7188 25.8594 19.8125 25.9844 19.9375 26.1406C20.0625 26.2969 20.0938 26.4688 20.0312 26.6562C19.7812 26.875 19.6562 27.2344 19.6562 27.7344C19.6875 28.2344 19.7969 28.6406 19.9844 28.9531C19.8906 29.1719 19.8438 29.3906 19.8438 29.6094C19.875 29.7969 19.8906 30 19.8906 30.2188C19.8906 30.4062 19.8906 30.625 19.8906 30.875C19.9219 31.0938 19.9531 31.3594 19.9844 31.6719C20.0781 32.0156 20.1094 32.2344 20.0781 32.3281C20.0781 32.4219 20.0469 32.5469 19.9844 32.7031C20.0469 32.9844 20.0938 33.2031 20.125 33.3594C20.1562 33.5156 20.25 33.7188 20.4062 33.9688C20.25 34.4062 20.2188 34.7969 20.3125 35.1406C20.4375 35.4844 20.4844 35.8594 20.4531 36.2656C20.5469 36.4219 20.6875 36.5 20.875 36.5C21.0625 36.5 21.2344 36.4375 21.3906 36.3125C21.3906 36.5625 21.4219 36.7344 21.4844 36.8281C21.5781 36.9219 21.5781 37.0938 21.4844 37.3438C21.1406 37.9688 21.0781 38.4688 21.2969 38.8438C21.5469 39.2188 21.8594 39.5156 22.2344 39.7344C22.2969 40.0781 22.2969 40.25 22.2344 40.25C22.1719 40.25 22.1094 40.25 22.0469 40.25C22.0469 40.625 22.1719 40.8281 22.4219 40.8594C22.3906 41.0156 22.4062 41.1562 22.4688 41.2812C22.5312 41.375 22.5938 41.4844 22.6562 41.6094C22.75 41.7031 22.8125 41.8125 22.8438 41.9375C22.9062 42.0625 22.9219 42.1875 22.8906 42.3125C23.1094 42.5 23.3125 42.7188 23.5 42.9688C23.7188 43.2188 23.9219 43.4531 24.1094 43.6719C24.3281 43.8906 24.5469 44.0938 24.7656 44.2812C25.0156 44.4688 25.2969 44.5781 25.6094 44.6094C25.7656 44.9219 26.0469 45.1094 26.4531 45.1719C26.8594 45.2344 27.2656 45.3125 27.6719 45.4062C28.5781 45.3125 29.3906 45.0938 30.1094 44.75C30.8281 44.4062 31.4844 44.0469 32.0781 43.6719C32.2969 43.4219 32.4844 43.1406 32.6406 42.8281C32.7969 42.4844 33 42.1875 33.25 41.9375C33.75 41.6875 34.0469 41.3281 34.1406 40.8594C34.2344 40.3906 34.3125 39.875 34.375 39.3125C34.2812 39.2812 34.2031 39.2969 34.1406 39.3594C34.0781 39.3906 33.9688 39.375 33.8125 39.3125C33.5625 38.9688 33.5469 38.6719 33.7656 38.4219C33.9844 38.1406 34.1875 37.9062 34.375 37.7188C34.4062 37.4688 34.4062 37.2812 34.375 37.1562C34.3438 37.0312 34.375 36.875 34.4688 36.6875C34.4062 36.4062 34.4219 36.1875 34.5156 36.0312C34.6094 35.8438 34.6094 35.6719 34.5156 35.5156C34.2344 35.5156 34.0156 35.5625 33.8594 35.6562C33.7344 35.7188 33.5625 35.6719 33.3438 35.5156C33.3125 35.3281 33.3438 35.1719 33.4375 35.0469C33.5625 34.8906 33.6094 34.7344 33.5781 34.5781C33.7344 34.3281 33.9375 34.125 34.1875 33.9688C34.4688 33.7812 34.625 33.5469 34.6562 33.2656C34.6875 33.1719 34.6562 33.0938 34.5625 33.0312C34.4688 32.9375 34.4219 32.8281 34.4219 32.7031C34.4219 32.5156 34.4688 32.3125 34.5625 32.0938C34.6875 31.8438 34.7188 31.625 34.6562 31.4375C34.5312 31.25 34.3906 31.2188 34.2344 31.3438C34.0781 31.4375 33.9219 31.4062 33.7656 31.25C33.8281 30.9062 33.8125 30.75 33.7188 30.7812C33.6562 30.7812 33.6406 30.7344 33.6719 30.6406C33.8906 30.6094 34.0469 30.5312 34.1406 30.4062C34.2656 30.25 34.4062 30.125 34.5625 30.0312C34.5 29.8125 34.3594 29.75 34.1406 29.8438C33.9531 29.9062 33.7812 29.9219 33.625 29.8906C33.5625 29.7656 33.5 29.6406 33.4375 29.5156C33.375 29.3906 33.3438 29.2812 33.3438 29.1875C33.4062 28.9688 33.5312 28.8281 33.7188 28.7656C33.9375 28.6719 34.0625 28.5 34.0938 28.25C33.9062 28.1562 33.6719 28.1094 33.3906 28.1094C33.1406 28.0781 32.875 28.0625 32.5938 28.0625C32.3125 28.0625 32.0312 28.0625 31.75 28.0625C31.5 28.0625 31.2812 28.0312 31.0938 27.9688C30.9688 28.0312 30.8594 28.0781 30.7656 28.1094C30.7031 28.1406 30.6562 28.2031 30.625 28.2969C30.5 28.2031 30.3594 28.1562 30.2031 28.1562C30.0469 28.125 29.875 28.1094 29.6875 28.1094C29.5312 28.1094 29.375 28.0938 29.2188 28.0625C29.0938 28.0312 28.9844 27.9375 28.8906 27.7812C28.8594 27.625 28.8906 27.5312 28.9844 27.5C29.0781 27.4688 29.1406 27.4062 29.1719 27.3125C30.2031 27.2188 31.3125 27.1719 32.5 27.1719C33.6875 27.1719 34.8281 27.0938 35.9219 26.9375C36.0781 26.9062 36.2812 26.875 36.5312 26.8438C36.8125 26.7812 37.0625 26.75 37.2812 26.75C38.25 26.6875 39.2188 26.7031 40.1875 26.7969C41.1875 26.8594 42.1094 26.7812 42.9531 26.5625C43.2969 26.6875 43.6719 26.75 44.0781 26.75C44.4844 26.7188 44.8906 26.6875 45.2969 26.6562C45.7344 26.625 46.1562 26.6094 46.5625 26.6094C47 26.6094 47.4062 26.6875 47.7812 26.8438ZM22.1875 36.6875C21.8438 36.7188 21.6406 36.7188 21.5781 36.6875C21.5469 36.625 21.5156 36.5312 21.4844 36.4062C21.5469 36.4375 21.6406 36.4062 21.7656 36.3125C21.8906 36.2188 22.0156 36.2344 22.1406 36.3594L22.1875 36.6875ZM40.7969 15.4062C40.7031 15.25 40.7031 15.0625 40.7969 14.8438C40.9219 14.5938 40.875 14.3906 40.6562 14.2344C40.4062 14.3906 40.2188 14.625 40.0938 14.9375C40 15.2188 39.7969 15.3906 39.4844 15.4531C39.4844 15.7344 39.375 15.9375 39.1562 16.0625C38.9688 16.1875 38.8281 16.3594 38.7344 16.5781C39.1094 16.3906 39.4844 16.2188 39.8594 16.0625C40.2344 15.9062 40.5469 15.6875 40.7969 15.4062ZM40.75 16.3906C40.4062 16.4531 40.0781 16.5938 39.7656 16.8125C39.4531 17.0312 39.2188 17.2812 39.0625 17.5625C39.0938 17.7188 39.2188 17.7969 39.4375 17.7969C39.6875 17.7969 39.8125 17.8594 39.8125 17.9844C39.8125 17.8281 39.9062 17.7188 40.0938 17.6562C40.3125 17.5938 40.5 17.5 40.6562 17.375C40.6875 17.1875 40.6875 17.0312 40.6562 16.9062C40.6562 16.75 40.6875 16.5781 40.75 16.3906ZM39.9062 18.2656C39.625 18.5781 39.5 18.75 39.5312 18.7812C39.6875 18.8125 39.7656 18.7656 39.7656 18.6406C39.7969 18.4844 39.8438 18.3594 39.9062 18.2656ZM40.4219 20.4688C40.4531 20.25 40.4688 19.9844 40.4688 19.6719C40.5 19.3594 40.4531 19.1719 40.3281 19.1094C40.0781 19.2656 39.9531 19.5 39.9531 19.8125C39.9844 20.125 40.1406 20.3438 40.4219 20.4688ZM40.4688 28.0625C40.4375 27.7812 40.2812 27.6406 40 27.6406C39.7188 27.6406 39.4531 27.6562 39.2031 27.6875C39.1719 28.0625 39.1562 28.2812 39.1562 28.3438C39.1875 28.4062 39.2344 28.4375 39.2969 28.4375C39.4531 28.3438 39.5469 28.2812 39.5781 28.25C39.6406 28.1875 39.7031 28.1562 39.7656 28.1562C39.8906 28.0625 40 28.0156 40.0938 28.0156C40.1875 28.0156 40.3125 28.0312 40.4688 28.0625ZM39.7656 28.3906C39.6094 28.4844 39.4688 28.5156 39.3438 28.4844C39.25 28.4531 39.2031 28.5625 39.2031 28.8125C39.2969 28.7812 39.375 28.7656 39.4375 28.7656C39.5312 28.7344 39.625 28.75 39.7188 28.8125L39.7656 28.3906ZM37.8906 27.7344C37.7344 27.7656 37.5312 27.7656 37.2812 27.7344C37.0312 27.7031 36.7812 27.6875 36.5312 27.6875C36.3125 27.6875 36.125 27.7344 35.9688 27.8281C35.8125 27.9219 35.7656 28.1094 35.8281 28.3906C35.9844 28.3906 36.125 28.3594 36.25 28.2969C36.375 28.2344 36.5156 28.2344 36.6719 28.2969C36.7031 28.1719 36.7656 28.0938 36.8594 28.0625C36.9844 28.0312 37.1094 28.0156 37.2344 28.0156C37.3906 27.9844 37.5156 27.9531 37.6094 27.9219C37.7344 27.8906 37.8281 27.8281 37.8906 27.7344ZM40.6562 30.5938C40.5 30.625 40.375 30.7031 40.2812 30.8281C40.2188 30.9219 40.0781 30.9375 39.8594 30.875C39.7031 31.1562 39.4375 31.375 39.0625 31.5312C38.7188 31.6875 38.3906 31.7812 38.0781 31.8125C38.0781 32.1875 38.125 32.3594 38.2188 32.3281C38.3438 32.2656 38.4531 32.2031 38.5469 32.1406C38.6406 32.0469 38.75 31.9688 38.875 31.9062C39 31.8438 39.1562 31.8125 39.3438 31.8125C39.6875 31.625 40.0312 31.4688 40.375 31.3438C40.75 31.2188 40.8438 30.9688 40.6562 30.5938ZM39.0625 28.8594C38.7188 28.9219 38.4219 29.0469 38.1719 29.2344C37.9219 29.4219 37.625 29.5469 37.2812 29.6094C37.2188 29.7031 37.1094 29.7969 36.9531 29.8906C36.8281 29.9844 36.6875 29.9844 36.5312 29.8906C36.1875 30.0781 36.0156 30.1875 36.0156 30.2188C36.0469 30.25 36.0781 30.2812 36.1094 30.3125C36.1719 30.3438 36.2188 30.375 36.25 30.4062C36.2812 30.4375 36.2656 30.4844 36.2031 30.5469C35.9844 30.6406 35.8125 30.75 35.6875 30.875C35.5938 31 35.5156 31.1562 35.4531 31.3438C35.7656 31.2812 36 31.2031 36.1562 31.1094C36.3438 30.9844 36.5 30.8438 36.625 30.6875C36.7812 30.7188 36.8906 30.7188 36.9531 30.6875C37.0156 30.625 37.1562 30.625 37.375 30.6875C37.4062 30.3438 37.5625 30.0781 37.8438 29.8906C38.1562 29.7031 38.4531 29.5781 38.7344 29.5156C38.8281 29.2656 38.9062 29.1094 38.9688 29.0469C39.0312 28.9844 39.0625 28.9219 39.0625 28.8594ZM35.5938 28.25C35.5625 28.4062 35.4844 28.4844 35.3594 28.4844C35.2656 28.4531 35.2031 28.5156 35.1719 28.6719C35.2969 28.7656 35.4375 28.7344 35.5938 28.5781C35.7812 28.4219 35.7812 28.3125 35.5938 28.25ZM36.625 28.9062C36.3438 28.8438 36.125 28.9062 35.9688 29.0938C35.8125 29.2812 35.6406 29.3125 35.4531 29.1875C35.8594 29.4062 36.25 29.3125 36.625 28.9062ZM40.9375 32.9375C40.9375 32.8438 40.9219 32.7656 40.8906 32.7031C40.8594 32.6406 40.8594 32.5469 40.8906 32.4219C40.7969 32.4219 40.7031 32.4219 40.6094 32.4219C40.5469 32.3906 40.4375 32.375 40.2812 32.375C40.1875 32.6562 40.0938 32.8281 40 32.8906C39.9375 32.9219 39.8594 32.9688 39.7656 33.0312C39.7031 33.0625 39.6094 33.1094 39.4844 33.1719C39.3906 33.2344 39.3125 33.3438 39.25 33.5C39.0938 33.4688 38.9844 33.4688 38.9219 33.5C38.8594 33.5312 38.7812 33.5469 38.6875 33.5469C38.9688 33.8594 39.1094 33.9844 39.1094 33.9219C39.1094 33.8281 39.1562 33.75 39.25 33.6875C39.3438 33.625 39.4688 33.6094 39.625 33.6406C39.8125 33.6406 40 33.625 40.1875 33.5938C40.2188 33.4688 40.2812 33.3594 40.375 33.2656C40.5 33.1406 40.625 33.1406 40.75 33.2656L40.9375 32.9375ZM20.7344 15.125C20.5781 15.0938 20.4688 15.1406 20.4062 15.2656C20.375 15.3594 20.3281 15.4531 20.2656 15.5469C20.3594 15.4844 20.4531 15.4375 20.5469 15.4062C20.6406 15.3438 20.7031 15.25 20.7344 15.125ZM36.6719 32C36.5781 32.0312 36.5 32.0625 36.4375 32.0938C36.375 32.0938 36.2812 32.0781 36.1562 32.0469C36.375 32.1406 36.5156 32.1875 36.5781 32.1875C36.6719 32.1875 36.7031 32.125 36.6719 32ZM39.8125 32.375C39.5312 32.1562 39.3594 32.1406 39.2969 32.3281C39.2656 32.4844 39.1094 32.5312 38.8281 32.4688C38.7344 32.7188 38.5625 32.8594 38.3125 32.8906C38.0938 32.8906 37.875 32.9219 37.6562 32.9844C37.6562 33.2031 37.625 33.3438 37.5625 33.4062C37.5 33.4375 37.3594 33.4219 37.1406 33.3594C36.9844 33.4844 36.9062 33.5938 36.9062 33.6875C36.9062 33.75 36.875 33.8125 36.8125 33.875C36.5625 33.9375 36.3594 34.0312 36.2031 34.1562C36.0781 34.25 35.9531 34.3594 35.8281 34.4844C35.7031 34.6094 35.5938 34.7344 35.5 34.8594C35.4062 34.9844 35.375 35.1562 35.4062 35.375C35.5625 35.375 35.6562 35.3125 35.6875 35.1875C35.75 35.0625 35.8594 35.0469 36.0156 35.1406C36.1719 34.8594 36.2812 34.7031 36.3438 34.6719C36.4375 34.6094 36.5312 34.6094 36.625 34.6719C36.7188 34.5469 36.8281 34.4219 36.9531 34.2969C37.1094 34.1406 37.2656 34.0938 37.4219 34.1562C37.4844 34.0938 37.5156 34.0156 37.5156 33.9219C37.5469 33.8281 37.625 33.7656 37.75 33.7344C37.9375 33.8281 38.0469 33.875 38.0781 33.875C38.1406 33.875 38.2344 33.8906 38.3594 33.9219C38.1094 33.7031 37.9688 33.625 37.9375 33.6875C37.9375 33.75 37.9062 33.7656 37.8438 33.7344C37.9375 33.6094 38.0156 33.5156 38.0781 33.4531C38.1406 33.3594 38.2656 33.3438 38.4531 33.4062C38.7031 33.1562 38.8125 33.0312 38.7812 33.0312C38.75 33 38.75 32.9531 38.7812 32.8906C38.9375 32.8906 39.0469 32.8438 39.1094 32.75C39.1719 32.6562 39.2812 32.6094 39.4375 32.6094L39.8125 32.375ZM41.1719 37.0156C41.0156 36.7344 40.9375 36.4688 40.9375 36.2188C40.9688 35.9688 40.9375 35.7188 40.8438 35.4688C41 35.3438 41.0469 35.2031 40.9844 35.0469C40.9219 34.8594 40.9062 34.6406 40.9375 34.3906C40.8125 34.3281 40.7188 34.3438 40.6562 34.4375C40.5938 34.5 40.4844 34.5 40.3281 34.4375C40.0781 34.5625 39.9219 34.625 39.8594 34.625C39.8281 34.625 39.7969 34.6562 39.7656 34.7188C39.5156 34.875 39.3125 35.0938 39.1562 35.375C39.0312 35.625 38.7969 35.8125 38.4531 35.9375C38.7969 35.875 39.0469 35.8281 39.2031 35.7969C39.3906 35.7344 39.6562 35.6719 40 35.6094C40.4062 35.5781 40.6719 35.7188 40.7969 36.0312C40.7344 36.1875 40.6406 36.3281 40.5156 36.4531C40.3906 36.5469 40.2188 36.5938 40 36.5938C39.8438 36.6562 39.6094 36.6875 39.2969 36.6875C39.3281 36.8125 39.3906 36.8906 39.4844 36.9219C39.6094 36.9219 39.7031 36.9688 39.7656 37.0625C39.7031 37.125 39.625 37.125 39.5312 37.0625C39.4375 37 39.3438 36.9844 39.25 37.0156C39.1562 37.2344 39.0312 37.3438 38.875 37.3438C38.75 37.3125 38.6562 37.3281 38.5938 37.3906C38.6562 37.6406 38.7812 37.7812 38.9688 37.8125C39.1875 37.8125 39.4219 37.8438 39.6719 37.9062C39.9219 37.6562 40.0625 37.5781 40.0938 37.6719C40.125 37.7344 40.1719 37.7188 40.2344 37.625C40.3594 37.4062 40.5156 37.2812 40.7031 37.25C40.8906 37.2188 41.0469 37.1406 41.1719 37.0156ZM18.3906 16.25C18.2344 16.25 18.125 16.3281 18.0625 16.4844C18.0312 16.6094 17.9688 16.7031 17.875 16.7656C18.0312 16.7344 18.1719 16.6875 18.2969 16.625C18.4219 16.5312 18.4531 16.4062 18.3906 16.25ZM38.9688 34.3906C38.4062 34.5156 37.9688 34.7656 37.6562 35.1406C37.5625 35.1406 37.4531 35.125 37.3281 35.0938C37.2344 35.0625 37.1719 35.1094 37.1406 35.2344C36.9531 35.5781 36.7031 35.7188 36.3906 35.6562C36.2969 35.9062 36.1406 36.0938 35.9219 36.2188C35.7031 36.3438 35.5625 36.5625 35.5 36.875C35.625 37 35.7656 37 35.9219 36.875C36.0781 36.7188 36.2344 36.5781 36.3906 36.4531C36.5469 36.3281 36.7031 36.2344 36.8594 36.1719C37.0469 36.0781 37.2344 36.0781 37.4219 36.1719C37.4844 35.9531 37.5156 35.8125 37.5156 35.75C37.5156 35.6875 37.5625 35.625 37.6562 35.5625C37.7812 35.625 37.9375 35.6562 38.125 35.6562C38.3125 35.625 38.3906 35.5312 38.3594 35.375C38.5469 35.125 38.6875 34.9688 38.7812 34.9062C38.875 34.8125 38.9375 34.6406 38.9688 34.3906ZM20.1719 16.9062C20.0156 16.9062 19.875 16.9531 19.75 17.0469C19.625 17.1094 19.5 17.1875 19.375 17.2812C19.25 17.375 19.125 17.4688 19 17.5625C18.875 17.6562 18.7188 17.7031 18.5312 17.7031C18.4062 17.9219 18.2188 18.0938 17.9688 18.2188C17.75 18.3125 17.5781 18.4844 17.4531 18.7344C17.7344 18.6406 17.9844 18.5312 18.2031 18.4062C18.4219 18.25 18.7031 18.1719 19.0469 18.1719C19.1719 18.0156 19.3125 17.8906 19.4688 17.7969C19.6562 17.7031 19.8594 17.625 20.0781 17.5625C20.0781 17.4375 20.0938 17.3438 20.125 17.2812C20.1562 17.1875 20.1719 17.0625 20.1719 16.9062ZM41.125 41.9375C41.125 41.6875 41.125 41.4219 41.125 41.1406C41.1562 40.8594 41.0469 40.6875 40.7969 40.625C40.6406 40.875 40.5938 41.0781 40.6562 41.2344C40.7188 41.3906 40.7188 41.5938 40.6562 41.8438L41.125 41.9375ZM40.75 39.5C40.5938 39.5625 40.5 39.5625 40.4688 39.5C40.4375 39.4375 40.3438 39.4375 40.1875 39.5C39.9375 39.8438 39.6406 40.0938 39.2969 40.25C38.9844 40.375 38.7188 40.5781 38.5 40.8594C38.7812 40.8906 38.9844 40.9688 39.1094 41.0938C39.2656 41.2188 39.4688 41.2969 39.7188 41.3281C39.9688 41.0781 40.1562 40.7969 40.2812 40.4844C40.4062 40.1406 40.5625 39.8125 40.75 39.5ZM38.5938 36.5469C38.5312 36.7031 38.4219 36.8281 38.2656 36.9219C38.1406 37.0156 38 37.0156 37.8438 36.9219C37.6562 37.1719 37.5156 37.3281 37.4219 37.3906C37.3281 37.4531 37.2031 37.4688 37.0469 37.4375C36.7031 37.6562 36.4531 37.7812 36.2969 37.8125C36.0156 38.125 35.75 38.3906 35.5 38.6094C35.2812 38.7969 35.2344 39.0156 35.3594 39.2656C35.7031 39.1406 35.9844 38.9375 36.2031 38.6562C36.4219 38.3438 36.7344 38.2031 37.1406 38.2344C37.3906 37.7969 37.6562 37.5312 37.9375 37.4375C38.2188 37.3438 38.3906 37.1562 38.4531 36.875L38.5938 36.5469ZM40.6562 37.9531C40.3125 38.1719 39.9844 38.3125 39.6719 38.375C39.3906 38.4062 39.0781 38.4219 38.7344 38.4219C38.4531 38.7344 38.1875 38.8594 37.9375 38.7969C37.6562 39.1719 37.2969 39.3906 36.8594 39.4531C36.8281 39.6719 36.7188 39.7969 36.5312 39.8281C36.375 39.8594 36.2344 39.9531 36.1094 40.1094C35.9531 40.2656 35.7969 40.3906 35.6406 40.4844C35.5156 40.5781 35.4219 40.7031 35.3594 40.8594C35.6094 40.8594 35.8125 40.8125 35.9688 40.7188C36.125 40.625 36.2969 40.6562 36.4844 40.8125C36.6406 40.6875 36.8281 40.6406 37.0469 40.6719C37.2656 40.6719 37.4688 40.6719 37.6562 40.6719C37.7188 40.2031 37.9219 39.8906 38.2656 39.7344C38.6406 39.5781 38.9531 39.3594 39.2031 39.0781C39.5469 38.8906 39.8594 38.75 40.1406 38.6562C40.4219 38.5312 40.5938 38.2969 40.6562 37.9531ZM17.4062 18.6875C17.125 18.8125 16.9219 18.9688 16.7969 19.1562C16.9531 19.2188 17.0781 19.1875 17.1719 19.0625C17.2656 18.9062 17.3438 18.7812 17.4062 18.6875ZM18.7656 21.6875C18.4844 21.75 18.2969 21.8594 18.2031 22.0156C18.3906 22.0781 18.5 22.0625 18.5312 21.9688C18.5938 21.8438 18.6719 21.75 18.7656 21.6875ZM19.7031 19.1094C19.2656 19.2031 18.8906 19.4062 18.5781 19.7188C18.2656 20 17.8906 20.1562 17.4531 20.1875C17.4844 20.5 17.3906 20.6875 17.1719 20.75C16.9531 20.7812 16.75 20.8281 16.5625 20.8906C16.5 21.0156 16.4375 21.125 16.375 21.2188C16.3125 21.3125 16.1562 21.3281 15.9062 21.2656C15.8438 21.3594 15.7812 21.4688 15.7188 21.5938C15.6562 21.6875 15.5625 21.7031 15.4375 21.6406C15.375 21.7969 15.2812 21.9219 15.1562 22.0156C15.0625 22.1094 14.9531 22.2344 14.8281 22.3906C14.5781 22.5469 14.4375 22.5938 14.4062 22.5312C14.4062 22.4688 14.375 22.4688 14.3125 22.5312C14.4688 22.7188 14.5781 22.7969 14.6406 22.7656C14.7031 22.7031 14.7812 22.6406 14.875 22.5781C15.0312 22.6094 15.125 22.5938 15.1562 22.5312C15.1875 22.4688 15.2656 22.4688 15.3906 22.5312C15.7344 22.25 16.0156 22.0625 16.2344 21.9688C16.4531 21.8438 16.625 21.6875 16.75 21.5C17.0938 21.4375 17.3281 21.3125 17.4531 21.125C17.5781 20.9062 17.7656 20.75 18.0156 20.6562C18.2031 20.5938 18.3906 20.5469 18.5781 20.5156C18.7969 20.4531 19.0312 20.4062 19.2812 20.375C19.375 19.9375 19.4688 19.6562 19.5625 19.5312C19.6562 19.4062 19.7031 19.2656 19.7031 19.1094ZM17.875 22.2031C17.75 22.1719 17.5938 22.2344 17.4062 22.3906C17.2188 22.5469 17.1406 22.7031 17.1719 22.8594C17.2969 22.7656 17.4219 22.6875 17.5469 22.625C17.7031 22.5625 17.8125 22.4219 17.875 22.2031ZM18.8594 25.4375C18.7969 25.4062 18.7188 25.4375 18.625 25.5312C18.5312 25.5938 18.4219 25.6562 18.2969 25.7188C18.4219 25.6562 18.5469 25.6406 18.6719 25.6719C18.8281 25.6719 18.8906 25.5938 18.8594 25.4375ZM18.8125 27.4062C18.5625 27.4688 18.4219 27.5312 18.3906 27.5938C18.3594 27.6562 18.3125 27.7188 18.25 27.7812C17.9062 27.8438 17.75 27.9062 17.7812 27.9688C17.8438 28 17.8438 28.0312 17.7812 28.0625C17.6562 27.9688 17.5781 27.9844 17.5469 28.1094C17.5156 28.2344 17.4062 28.2656 17.2188 28.2031C17.2812 28.3281 17.2344 28.3906 17.0781 28.3906C16.9531 28.3906 16.8594 28.4688 16.7969 28.625C16.9219 28.7812 17.1094 28.8438 17.3594 28.8125C17.4844 28.6875 17.6562 28.5625 17.875 28.4375C18.125 28.3125 18.3281 28.2969 18.4844 28.3906C18.6094 28.2344 18.7188 28.0938 18.8125 27.9688C18.9375 27.8438 18.9375 27.6562 18.8125 27.4062ZM18.3906 28.7188C18.3281 28.6562 18.2344 28.6406 18.1094 28.6719C18.0156 28.6719 17.9375 28.7031 17.875 28.7656C18 28.8281 18.0781 28.8281 18.1094 28.7656C18.1719 28.7031 18.2656 28.6875 18.3906 28.7188ZM19.2344 31.25C19.1719 31.125 19.0312 31.0625 18.8125 31.0625C18.5938 31.0625 18.4531 30.9844 18.3906 30.8281C18.1406 31.1094 18.0469 31.25 18.1094 31.25C18.1719 31.25 18.25 31.2344 18.3438 31.2031C18.4375 31.1719 18.5156 31.1562 18.5781 31.1562C18.6719 31.125 18.7344 31.1719 18.7656 31.2969C18.6094 31.2969 18.4219 31.3438 18.2031 31.4375C18.0156 31.5312 17.8906 31.7031 17.8281 31.9531C18.0781 31.8594 18.2031 31.7656 18.2031 31.6719C18.2031 31.5781 18.2344 31.5156 18.2969 31.4844C18.4531 31.4844 18.625 31.4844 18.8125 31.4844C19.0312 31.4844 19.1719 31.4062 19.2344 31.25ZM17.5469 29.7969C17.1719 29.5781 16.9844 29.4688 16.9844 29.4688C16.7656 29.5625 16.625 29.6094 16.5625 29.6094C16.5312 29.6094 16.4688 29.5781 16.375 29.5156C16.375 29.7656 16.2656 29.9062 16.0469 29.9375C15.8281 29.9375 15.6875 30.0156 15.625 30.1719C15.7812 30.2344 15.8906 30.2656 15.9531 30.2656C16.0469 30.2344 16.1719 30.2344 16.3281 30.2656C16.2969 30.1094 16.4062 30.0312 16.6562 30.0312C16.9062 30 17.125 29.9531 17.3125 29.8906L17.5469 29.7969ZM18.1094 26.8438C17.9219 26.7812 17.7656 26.8125 17.6406 26.9375C17.5469 27.0312 17.4219 27.0469 17.2656 26.9844C17.2656 27.1406 17.1875 27.2188 17.0312 27.2188C16.9062 27.2188 16.7969 27.25 16.7031 27.3125C16.4219 27.4688 16.1406 27.6406 15.8594 27.8281C15.5781 28.0156 15.2656 28.1406 14.9219 28.2031C14.7031 28.4219 14.5 28.6094 14.3125 28.7656C14.1562 28.9219 13.9688 28.9688 13.75 28.9062C13.7188 29.0625 13.6406 29.1562 13.5156 29.1875C13.4219 29.2188 13.3438 29.2812 13.2812 29.375C13.0625 29.4375 12.9062 29.4531 12.8125 29.4219C12.75 29.3594 12.6094 29.3281 12.3906 29.3281C12.2969 29.5156 12.2812 29.7031 12.3438 29.8906C12.4375 30.0469 12.4688 30.2344 12.4375 30.4531C12.75 30.3906 12.9375 30.375 13 30.4062C13.0938 30.4375 13.1719 30.5 13.2344 30.5938C13.2656 30.2188 13.3281 30.0156 13.4219 29.9844C13.6406 29.8281 13.8438 29.7188 14.0312 29.6562C14.125 29.7188 14.2031 29.7969 14.2656 29.8906C14.3281 29.9531 14.3281 30.0469 14.2656 30.1719C14.5156 29.9531 14.5781 29.8281 14.4531 29.7969C14.3281 29.7344 14.2344 29.6875 14.1719 29.6562C14.4219 29.375 14.5469 29.2969 14.5469 29.4219C14.5469 29.5469 14.625 29.6094 14.7812 29.6094C14.7188 29.3906 14.6562 29.2812 14.5938 29.2812C14.5312 29.25 14.5 29.1875 14.5 29.0938C14.8125 28.8125 15.0625 28.6562 15.25 28.625C15.4688 28.5625 15.6406 28.4531 15.7656 28.2969C15.9219 28.3594 16 28.4531 16 28.5781C16 28.6719 15.9844 28.75 15.9531 28.8125C15.9531 28.6562 16 28.5938 16.0938 28.625C16.2188 28.625 16.2812 28.5469 16.2812 28.3906C16.4688 27.9219 16.7812 27.6562 17.2188 27.5938C17.2812 27.4062 17.4531 27.2969 17.7344 27.2656C17.8906 27.1094 18.0156 26.9688 18.1094 26.8438ZM16 29.1406C15.7188 29.2344 15.5781 29.25 15.5781 29.1875C15.6094 29.0938 15.5625 29.0781 15.4375 29.1406C15.5 29.2969 15.5625 29.4062 15.625 29.4688C15.6875 29.5 15.7344 29.5625 15.7656 29.6562C15.7656 29.5312 15.7812 29.4375 15.8125 29.375C15.875 29.3125 15.9375 29.2344 16 29.1406ZM19.2812 32.9844C19.1562 32.9531 19.0469 32.9844 18.9531 33.0781C18.8906 33.1719 18.7969 33.1719 18.6719 33.0781C18.5781 33.3281 18.6562 33.4531 18.9062 33.4531C19.1875 33.4531 19.3125 33.2969 19.2812 32.9844ZM15.5312 29.5156C15.4375 29.4531 15.3594 29.4375 15.2969 29.4688C15.2344 29.5 15.125 29.5312 14.9688 29.5625C15.1875 29.625 15.375 29.6094 15.5312 29.5156ZM15.8125 30.5938C15.6562 30.4688 15.5469 30.3906 15.4844 30.3594C15.4219 30.2969 15.3594 30.2344 15.2969 30.1719C15.4531 30.4219 15.625 30.5625 15.8125 30.5938ZM16.9375 31.9062C16.9062 31.75 16.7969 31.625 16.6094 31.5312C16.4531 31.4375 16.4531 31.3125 16.6094 31.1562C16.5781 31.4375 16.5781 31.6094 16.6094 31.6719C16.5156 31.7344 16.4531 31.8125 16.4219 31.9062C16.4219 32 16.375 32.125 16.2812 32.2812C16.5 32.1562 16.6094 32.0469 16.6094 31.9531C16.6406 31.8594 16.6875 31.7969 16.75 31.7656L16.9375 31.9062ZM13.375 27.6875C13.0625 27.625 12.9219 27.5938 12.9531 27.5938C12.9844 27.5625 12.9688 27.5156 12.9062 27.4531C12.6562 27.4844 12.5 27.6094 12.4375 27.8281C12.375 28.0469 12.3438 28.2969 12.3438 28.5781C12.5 28.5156 12.5938 28.4844 12.625 28.4844C12.6875 28.4531 12.7969 28.4844 12.9531 28.5781C12.8906 28.2344 12.9219 28.0469 13.0469 28.0156C13.2031 27.9531 13.3125 27.8438 13.375 27.6875ZM15.3438 30.9688C15.1875 30.8438 15.0156 30.7812 14.8281 30.7812C14.9531 30.75 15.125 30.8125 15.3438 30.9688ZM16.2344 31.3438C16.1406 31.4062 16.0469 31.4375 15.9531 31.4375C15.8594 31.4375 15.7812 31.4844 15.7188 31.5781C15.7188 31.8281 15.7031 31.9844 15.6719 32.0469C15.6719 32.1094 15.7188 32.125 15.8125 32.0938C16 31.875 16.0938 31.7344 16.0938 31.6719C16.125 31.6094 16.1719 31.5 16.2344 31.3438ZM21.25 36.6406C20.9375 36.7344 20.7812 36.9375 20.7812 37.25C21.0312 37.0938 21.1719 36.9844 21.2031 36.9219C21.2656 36.8594 21.2812 36.7656 21.25 36.6406ZM14.125 30.5469C14.0625 30.3594 13.9844 30.2812 13.8906 30.3125C13.7969 30.3125 13.7344 30.2812 13.7031 30.2188C13.7969 30.2812 13.875 30.3594 13.9375 30.4531C14 30.5156 14.0625 30.5469 14.125 30.5469ZM16.1875 32.1875C16.0625 32.125 15.9688 32.125 15.9062 32.1875C15.8438 32.2188 15.7656 32.25 15.6719 32.2812C15.6719 32.4375 15.7188 32.5312 15.8125 32.5625C15.9375 32.5625 16.0312 32.5938 16.0938 32.6562L16.1875 32.1875ZM14.7344 31.2969C14.7344 31.1094 14.625 31.0156 14.4062 31.0156C14.1875 30.9844 14.0469 31.0469 13.9844 31.2031C14.1719 31.2656 14.3125 31.2969 14.4062 31.2969C14.5 31.2656 14.5781 31.2812 14.6406 31.3438L14.7344 31.2969ZM19.6562 35.0469C19.4375 35.2656 19.1094 35.4062 18.6719 35.4688C18.5781 35.75 18.375 35.9531 18.0625 36.0781C17.7812 36.1719 17.6094 36.375 17.5469 36.6875C17.6719 36.875 17.7656 36.9844 17.8281 37.0156C17.8906 37.0469 17.9531 37.0781 18.0156 37.1094C18.0156 36.7656 18.0781 36.5781 18.2031 36.5469C18.3281 36.5156 18.4375 36.4375 18.5312 36.3125C18.6562 36.1875 18.75 36.125 18.8125 36.125C18.9062 36.125 18.9844 36.0938 19.0469 36.0312C19.2031 35.875 19.375 35.7344 19.5625 35.6094C19.5625 35.4531 19.5469 35.3438 19.5156 35.2812C19.5156 35.1875 19.5625 35.1094 19.6562 35.0469ZM15.625 32.1406C15.4375 31.8906 15.3125 31.7812 15.25 31.8125C15.2188 31.8438 15.1562 31.8281 15.0625 31.7656C15 31.9531 14.9531 32.0938 14.9219 32.1875C14.9219 32.25 14.8594 32.2812 14.7344 32.2812C14.7656 32.4375 14.75 32.5469 14.6875 32.6094C14.625 32.6719 14.625 32.7656 14.6875 32.8906C14.4375 32.7344 14.2969 32.6875 14.2656 32.75C14.2344 32.7812 14.1406 32.75 13.9844 32.6562C14.1719 32.9062 14.2969 33.0469 14.3594 33.0781C14.4531 33.0781 14.5781 33.0781 14.7344 33.0781C14.9219 32.8594 15.0781 32.7656 15.2031 32.7969C15.3281 32.7969 15.4219 32.7656 15.4844 32.7031C15.3906 32.6719 15.2812 32.6562 15.1562 32.6562C15.0625 32.625 14.9844 32.5625 14.9219 32.4688C14.9531 32.375 15 32.3281 15.0625 32.3281C15.1562 32.3281 15.2344 32.3438 15.2969 32.375C15.3906 32.4062 15.4688 32.4219 15.5312 32.4219C15.5938 32.3906 15.625 32.2969 15.625 32.1406ZM13.8906 32.2812C13.7656 32.1562 13.625 32.0625 13.4688 32C13.3438 31.9375 13.2031 31.9062 13.0469 31.9062C13.2344 32.0938 13.375 32.2031 13.4688 32.2344C13.5938 32.2656 13.7344 32.2812 13.8906 32.2812ZM16.8906 33.1719C16.7969 33.1719 16.7031 33.1875 16.6094 33.2188C16.5469 33.25 16.4375 33.25 16.2812 33.2188C16.25 33.3438 16.1875 33.4375 16.0938 33.5C16.0312 33.5312 15.9531 33.5625 15.8594 33.5938C15.7656 33.5938 15.6562 33.6094 15.5312 33.6406C15.4375 33.6719 15.375 33.7344 15.3438 33.8281C15.2188 33.8281 15.125 33.7969 15.0625 33.7344C15.0312 33.6406 14.9688 33.5625 14.875 33.5C14.9688 33.6875 14.9219 33.8594 14.7344 34.0156C14.5469 34.1719 14.375 34.2344 14.2188 34.2031C14.125 34.4531 13.9688 34.6719 13.75 34.8594C13.5312 35.0156 13.4219 35.2031 13.4219 35.4219C13.7656 35.2969 14 35.1406 14.125 34.9531C14.5625 34.9844 14.8594 34.875 15.0156 34.625C15.1719 34.3438 15.4219 34.25 15.7656 34.3438C16.0156 34.1875 16.125 34.0938 16.0938 34.0625C16.0938 34 16.0938 33.9375 16.0938 33.875C16.4375 33.75 16.7031 33.5156 16.8906 33.1719ZM18.7656 37.5781C18.6719 37.5156 18.5312 37.4688 18.3438 37.4375C18.1562 37.4062 18.0156 37.4531 17.9219 37.5781C18.2031 37.6094 18.3906 37.6406 18.4844 37.6719C18.6094 37.7031 18.7031 37.6719 18.7656 37.5781ZM13.375 32.375C13.2812 32.2812 13.2031 32.2812 13.1406 32.375C13.1094 32.4375 13.0156 32.4531 12.8594 32.4219C12.8594 32.5781 13.0156 32.6562 13.3281 32.6562L13.375 32.375ZM20.6875 40.1094L20.125 39.6875C20.125 40.0312 20.1875 40.1875 20.3125 40.1562C20.4375 40.125 20.5625 40.1094 20.6875 40.1094ZM14.3594 33.3594C14.0781 33.2344 13.9062 33.25 13.8438 33.4062C13.8125 33.5312 13.7031 33.5938 13.5156 33.5938C13.6719 33.6875 13.7969 33.6719 13.8906 33.5469C14.0156 33.4219 14.1719 33.3594 14.3594 33.3594ZM17.7344 37.1562C17.6094 37.0938 17.5156 37.0781 17.4531 37.1094C17.3906 37.1406 17.3125 37.1875 17.2188 37.25C17.2812 37.4062 17.3594 37.4688 17.4531 37.4375C17.5781 37.4062 17.6719 37.3125 17.7344 37.1562ZM20.5 39.3125C20.4375 39.0938 20.3594 38.9219 20.2656 38.7969C20.2031 38.6406 20.1406 38.4375 20.0781 38.1875C19.7344 38.125 19.5 38.1719 19.375 38.3281C19.25 38.4531 19.0781 38.5938 18.8594 38.75C18.9844 38.2812 19.1719 38.0156 19.4219 37.9531C19.7031 37.8594 19.875 37.6875 19.9375 37.4375C19.4688 37.4375 19.1562 37.5469 19 37.7656C18.8438 37.9531 18.5938 38.0156 18.25 37.9531C18.2188 38.1094 18.125 38.2031 17.9688 38.2344C17.8438 38.2656 17.7031 38.2969 17.5469 38.3281C17.3594 38.4844 17.2188 38.6562 17.125 38.8438C17.0625 39 16.9062 39.0156 16.6562 38.8906C16.5938 39.1094 16.4844 39.25 16.3281 39.3125C16.2031 39.375 16.0312 39.4219 15.8125 39.4531C15.7812 39.3594 15.7188 39.2969 15.625 39.2656C15.5312 39.2031 15.4531 39.1406 15.3906 39.0781C15.5156 38.8906 15.7656 38.7812 16.1406 38.75C16.2031 38.5 16.3125 38.3125 16.4688 38.1875C16.6562 38.0625 16.7812 37.875 16.8438 37.625C16.7188 37.7188 16.5938 37.7969 16.4688 37.8594C16.3438 37.8906 16.25 37.9375 16.1875 38C15.9375 38.2188 15.6562 38.3281 15.3438 38.3281C15.3125 38.5156 15.2188 38.6406 15.0625 38.7031C14.9375 38.7656 14.8594 38.875 14.8281 39.0312C15.1719 39.2812 15.4531 39.5625 15.6719 39.875C15.8906 40.1562 16.1094 40.4219 16.3281 40.6719C16.4219 40.7969 16.5312 40.9219 16.6562 41.0469C16.7812 41.1719 16.875 41.2969 16.9375 41.4219C17.125 41.4219 17.2969 41.3906 17.4531 41.3281C17.6094 41.2344 17.7344 41.1406 17.8281 41.0469C17.9531 40.9531 18.0781 40.875 18.2031 40.8125C18.3281 40.7188 18.4688 40.6719 18.625 40.6719C18.875 40.5781 19.0156 40.5469 19.0469 40.5781C19.0781 40.6094 19.125 40.625 19.1875 40.625C19.3125 40.4375 19.5156 40.3125 19.7969 40.25C19.7344 40.0938 19.7812 39.9219 19.9375 39.7344C20.125 39.5156 20.3125 39.375 20.5 39.3125ZM22.7969 43.4844C22.6719 43.2656 22.5156 43.1406 22.3281 43.1094C22.1406 43.0469 21.9375 43.0469 21.7188 43.1094C21.5312 43.1719 21.3438 43.2656 21.1562 43.3906C20.9688 43.5156 20.8125 43.6406 20.6875 43.7656C20.75 44.0156 20.9219 44.1562 21.2031 44.1875C21.5156 44.2188 21.7812 44.2969 22 44.4219C22.375 44.1094 22.6406 43.7969 22.7969 43.4844ZM21.2969 41.3281C21.2344 41.2656 21.1406 41.25 21.0156 41.2812C20.8906 41.3125 20.7969 41.2969 20.7344 41.2344C20.6094 41.5156 20.375 41.6875 20.0312 41.75C19.6875 41.8125 19.4375 41.9688 19.2812 42.2188C19.125 42.25 18.9688 42.2969 18.8125 42.3594C18.6875 42.4219 18.6094 42.5312 18.5781 42.6875C18.7344 42.8125 18.875 42.875 19 42.875C19.1562 42.875 19.3125 42.9375 19.4688 43.0625C19.7188 42.7188 20 42.4219 20.3125 42.1719C20.6562 41.9219 20.9844 41.6406 21.2969 41.3281ZM15.7656 36.875C15.7344 36.75 15.6406 36.7031 15.4844 36.7344C15.3594 36.7344 15.2188 36.7188 15.0625 36.6875C15 36.5625 14.9531 36.4688 14.9219 36.4062C14.8906 36.3438 14.8906 36.2188 14.9219 36.0312C14.7031 35.9688 14.5469 35.9844 14.4531 36.0781C14.3906 36.1719 14.2969 36.25 14.1719 36.3125C13.8281 36.5312 13.7344 36.7344 13.8906 36.9219C14.0469 37.0781 14.0938 37.2812 14.0312 37.5312C14.5625 37.625 14.9375 37.5938 15.1562 37.4375C15.375 37.25 15.5781 37.0625 15.7656 36.875Z" fill="#2F7FFF"/>
</svg>
