<svg width="20" height="20" viewBox="0 0 20 20" fill="none" xmlns="http://www.w3.org/2000/svg">
<g clip-path="url(#clip0_459_719)">
<path d="M19.3604 0.23114H8.72866C8.37494 0.23114 8.08887 0.518115 8.08887 0.871297V5.38656L8.55145 4.84571C8.77112 4.58857 9.06071 4.43 9.36849 4.36376V1.51121H18.7206V9.86999H9.36853V8.47075L9.08041 8.80767C8.82862 9.10147 8.47319 9.28378 8.08887 9.3197V10.5099C8.08887 10.8631 8.37494 11.1497 8.72866 11.1497H12.1816L10.4273 19.114C10.3487 19.4711 10.5745 19.8243 10.9319 19.9031C11.2861 19.9809 11.6423 19.756 11.7201 19.3992L13.537 11.1498H14.5932L16.4101 19.3992C16.4781 19.708 16.7521 19.9188 17.0559 19.9184C17.1031 19.9184 17.1513 19.9136 17.199 19.9031C17.5564 19.8243 17.7821 19.4712 17.7028 19.114L15.9488 11.1497H19.3605C19.7139 11.1497 20.0003 10.8631 20.0003 10.5099V0.871297C20.0002 0.518115 19.7138 0.23114 19.3604 0.23114Z" fill="#7B0000"/>
<path d="M14.2779 3.96893C14.2275 3.84183 14.0845 3.77943 13.9575 3.82973L10.1881 5.16019C9.84211 4.89234 9.34299 4.9402 9.0545 5.27573L7.85842 6.67251L6.79785 5.7634C6.80484 5.83848 6.82074 5.91143 6.82074 5.98847V7.96202L7.41079 8.4676C7.76095 8.76749 8.28475 8.72115 8.57753 8.37777L10.0015 6.71269L11.1498 6.04086L14.1721 4.27262C14.2766 4.21238 14.3229 4.08365 14.2779 3.96893Z" fill="#7B0000"/>
<path d="M4.49256 4.32288H3.78223C3.23836 4.32288 2.76012 4.58721 2.45615 4.99013L0.275755 6.99757C-0.0639812 7.30019 -0.0947957 7.82441 0.211142 8.16619L1.99005 10.1518C2.29333 10.4913 2.81832 10.5214 3.15801 10.2162C3.49861 9.91093 3.52738 9.3881 3.22218 9.04792L1.99601 7.67867L3.73765 6.12021L2.7233 7.49832L3.71554 8.60613C4.26382 9.21883 4.21212 10.1602 3.59972 10.7089C3.18159 11.0838 2.611 11.1717 2.11633 10.9988C2.11633 10.9988 2.12401 14.8265 2.12401 18.9257C2.12401 19.474 2.56841 19.9184 3.11674 19.9184C3.66449 19.9184 4.10946 19.474 4.10946 18.9257C4.10946 14.8278 4.10946 17.1663 4.10946 13.0092H4.77165C4.77165 17.1632 4.77165 14.8265 4.77165 18.9257C4.77165 19.2119 4.69183 19.477 4.56457 19.7116C4.73115 19.8397 4.93843 19.9184 5.16435 19.9184C5.71296 19.9184 6.15736 19.474 6.15736 18.9257C6.15736 14.8278 6.15863 16.5456 6.15863 5.98845C6.15871 5.06855 5.41299 4.32288 4.49256 4.32288Z" fill="#7B0000"/>
<path d="M3.25262 3.72709C3.51806 3.86506 3.81607 3.95068 4.13619 3.95068C4.45713 3.95068 4.75514 3.86506 5.02135 3.72685C5.64271 3.40493 6.07101 2.76404 6.07101 2.01603C6.07101 0.947496 5.20477 0.081543 4.13615 0.081543C3.0677 0.081543 2.20166 0.947496 2.20166 2.01603C2.2017 2.76445 2.63045 3.40558 3.25262 3.72709Z" fill="#7B0000"/>
</g>
<defs>
<clipPath id="clip0_459_719">
<rect width="20" height="20" fill="white"/>
</clipPath>
</defs>
</svg>
